<?xml version="1.0" standalone="no"?>
<!DOCTYPE svg PUBLIC "-//W3C//DTD SVG 20010904//EN"
 "http://www.w3.org/TR/2001/REC-SVG-20010904/DTD/svg10.dtd">
<svg version="1.0" xmlns="http://www.w3.org/2000/svg"
 width="1080.000000pt" height="1080.000000pt" viewBox="0 0 1080.000000 1080.000000"
 preserveAspectRatio="xMidYMid meet">

<g transform="translate(0.000000,1080.000000) scale(0.100000,-0.100000)"
fill="#000000" stroke="none">
<path d="M3452 6764 c-316 -46 -577 -177 -796 -399 -85 -85 -182 -220 -212
-292 -17 -40 -18 -85 -2 -101 25 -25 59 -10 158 66 324 247 464 317 692 343
179 20 291 -3 548 -111 63 -26 136 -51 162 -55 82 -12 199 41 297 135 93 92
94 189 1 268 -30 26 -196 101 -260 117 -174 45 -402 56 -588 29z"/>
<path d="M6294 6755 c-27 -13 -67 -43 -89 -65 l-40 -41 -3 -159 c-5 -197 -2
-204 74 -198 43 4 67 13 111 44 85 59 93 80 93 257 0 83 -5 157 -10 168 -15
27 -74 25 -136 -6z"/>
<path d="M4815 6696 c-61 -29 -103 -68 -121 -112 -12 -28 -14 -220 -14 -1153
0 -1270 -8 -1158 83 -1148 61 8 127 46 164 94 l28 36 2 1126 c2 893 0 1131
-10 1151 -17 35 -68 37 -132 6z"/>
<path d="M2790 5961 c-106 -33 -233 -143 -287 -251 -24 -48 -28 -69 -31 -170
-5 -134 18 -251 67 -349 36 -70 142 -181 226 -236 126 -83 348 -154 620 -200
295 -50 460 -119 570 -237 115 -124 146 -228 147 -483 1 -130 -3 -163 -25
-247 -35 -131 -92 -250 -158 -326 -64 -75 -99 -122 -99 -133 0 -5 9 -18 20
-29 17 -17 28 -19 63 -14 149 23 336 151 459 314 70 91 144 247 174 365 23 87
26 120 26 260 0 175 -9 247 -49 374 -54 173 -206 343 -389 434 -162 82 -322
133 -603 192 -285 60 -366 92 -457 181 -82 82 -111 172 -120 379 -3 66 -7 129
-9 141 -8 37 -80 55 -145 35z"/>
<path d="M6334 5949 c-42 -12 -122 -68 -148 -103 -21 -27 -21 -37 -24 -781 -3
-857 -9 -791 80 -783 36 4 64 16 105 44 100 70 93 2 93 856 0 665 -2 748 -16
762 -17 18 -43 19 -90 5z"/>
<path d="M7000 5945 c-57 -18 -126 -76 -145 -122 -11 -26 -15 -77 -15 -193 0
-211 1 -212 145 -110 162 115 234 156 335 190 115 38 274 24 352 -31 14 -11
45 -49 68 -85 70 -112 72 -127 79 -740 5 -437 9 -544 20 -557 43 -52 211 23
247 110 21 50 20 1006 -1 1126 -47 270 -172 392 -430 419 -85 9 -112 9 -175
-6 -86 -19 -180 -60 -256 -112 -32 -22 -61 -34 -75 -32 -22 3 -24 8 -27 65 -2
51 -7 65 -25 78 -26 18 -38 18 -97 0z"/>
<path d="M5740 5905 c-8 -2 -31 -6 -51 -10 -61 -9 -106 -53 -394 -380 -103
-116 -121 -137 -189 -214 -70 -80 -74 -114 -21 -187 19 -27 41 -61 50 -75 20
-36 444 -652 489 -711 30 -40 42 -48 69 -48 20 0 47 10 67 25 38 28 87 96 96
132 15 59 7 72 -313 507 -146 198 -203 281 -203 296 0 28 33 65 275 315 275
284 292 304 276 334 -10 18 -20 21 -74 20 -34 -1 -69 -3 -77 -4z"/>
<path d="M6995 5424 c-67 -45 -135 -116 -145 -154 -6 -20 -10 -227 -10 -497 0
-510 -2 -493 63 -493 40 0 123 38 160 74 57 53 57 53 57 576 0 313 -4 488 -10
501 -15 28 -67 24 -115 -7z"/>
<path d="M6272 4014 c-19 -13 -22 -24 -22 -75 0 -51 2 -59 19 -59 35 0 60 32
62 80 1 25 1 51 0 58 -2 17 -32 15 -59 -4z"/>
<path d="M6045 3985 l-25 -24 0 -355 c0 -195 3 -361 6 -370 8 -22 26 -20 58 5
l26 20 0 375 c0 370 0 374 -20 374 -12 0 -32 -11 -45 -25z"/>
<path d="M2718 3876 c-63 -23 -131 -68 -189 -125 -67 -68 -84 -105 -74 -166
15 -107 252 -293 430 -340 279 -73 618 -17 773 129 45 42 116 143 131 185 16
50 14 95 -7 114 -26 23 -36 22 -138 -19 -76 -32 -103 -38 -189 -41 -156 -8
-266 25 -381 113 -27 21 -75 57 -106 81 -103 79 -170 97 -250 69z"/>
<path d="M4802 3844 c-19 -13 -22 -24 -22 -83 l0 -69 33 -6 c17 -3 67 -4 109
-3 66 2 81 6 103 27 14 13 22 27 18 31 -5 5 -46 9 -93 11 l-85 3 -3 53 c-3 57
-17 66 -60 36z"/>
<path d="M5162 3744 c-23 -16 -23 -17 -20 -223 3 -225 9 -252 65 -288 63 -42
213 -10 221 46 3 20 1 22 -20 14 -13 -4 -47 -8 -75 -8 -97 0 -112 45 -113 328
0 134 -2 147 -18 147 -10 0 -28 -7 -40 -16z"/>
<path d="M5491 3743 c-21 -18 -21 -23 -19 -268 3 -244 4 -250 23 -247 11 2 28
11 38 19 15 15 17 41 17 265 0 236 -1 248 -19 248 -10 0 -28 -8 -40 -17z"/>
<path d="M5805 3746 c-45 -20 -126 -106 -99 -106 3 0 25 11 49 25 35 21 57 26
114 26 38 0 78 -4 89 -10 24 -13 32 -5 32 31 0 21 -6 31 -26 38 -36 14 -124
12 -159 -4z"/>
<path d="M6271 3743 c-20 -17 -21 -27 -21 -253 0 -129 -1 -243 0 -252 0 -24
21 -23 54 3 l26 20 0 250 c0 237 -1 249 -19 249 -10 0 -28 -8 -40 -17z"/>
<path d="M6573 3740 c-41 -21 -109 -87 -99 -97 2 -3 25 7 51 22 37 22 59 28
110 28 82 1 110 -15 143 -78 24 -46 26 -60 26 -170 1 -102 -3 -127 -21 -167
-29 -63 -9 -64 45 -3 49 56 72 133 72 241 0 103 -29 170 -91 211 -59 39 -173
45 -236 13z"/>
<path d="M7375 3741 c-42 -19 -103 -76 -93 -87 3 -3 26 5 50 17 51 26 156 32
183 9 47 -39 55 -91 55 -367 0 -103 7 -112 54 -70 l26 22 1 187 c2 184 1 187
-24 231 -16 27 -40 51 -61 61 -46 22 -140 20 -191 -3z"/>
<path d="M7810 3740 c-16 -16 -20 -33 -20 -85 0 -36 3 -65 6 -65 3 0 29 20 58
44 66 57 99 70 139 56 45 -15 72 -12 93 11 19 21 18 21 -5 40 -37 30 -99 25
-149 -11 -23 -16 -44 -30 -47 -30 -3 0 -5 14 -5 30 0 25 -4 30 -25 30 -14 0
-34 -9 -45 -20z"/>
<path d="M4696 3718 c-19 -26 -9 -40 22 -32 15 4 22 14 22 30 0 30 -24 31 -44
2z"/>
<path d="M4784 3635 c-3 -8 -4 -85 -2 -172 3 -129 7 -164 21 -191 34 -62 135
-82 198 -39 30 20 63 66 54 75 -2 2 -25 -4 -52 -14 -59 -21 -96 -14 -120 23
-14 22 -19 55 -22 172 -2 94 -7 149 -15 153 -19 13 -56 9 -62 -7z"/>
<path d="M5738 3614 c-55 -29 -80 -132 -58 -239 22 -106 69 -153 163 -161 66
-7 140 27 145 65 3 21 1 23 -20 16 -12 -5 -46 -9 -75 -9 -41 -1 -56 4 -77 23
-45 42 -59 130 -43 259 4 34 4 62 0 62 -4 -1 -20 -7 -35 -16z"/>
<path d="M6507 3612 c-14 -9 -32 -30 -39 -47 -19 -45 -16 -181 5 -237 32 -83
108 -129 190 -114 30 6 87 48 87 64 0 4 -29 7 -64 7 -72 0 -98 16 -122 72 -14
33 -22 233 -10 252 11 17 -20 19 -47 3z"/>
<path d="M7817 3554 c-27 -27 -27 -28 -27 -175 0 -81 4 -150 9 -154 15 -8 58
15 70 39 8 14 11 71 9 166 -3 161 -10 175 -61 124z"/>
<path d="M7345 3517 c-35 -20 -91 -84 -82 -94 2 -2 32 11 66 29 66 34 63 34
181 6 23 -5 26 53 4 69 -29 21 -123 16 -169 -10z"/>
<path d="M7296 3389 c-55 -44 -20 -143 60 -169 45 -15 94 -8 139 20 37 23 52
69 18 55 -10 -4 -39 -10 -65 -12 -40 -5 -50 -2 -72 20 -15 15 -28 43 -32 66
-8 47 -12 49 -48 20z"/>
<path d="M7057 3360 c-23 -19 -27 -29 -27 -75 0 -30 3 -56 8 -59 13 -8 70 22
82 44 6 11 10 40 8 63 -4 50 -29 60 -71 27z"/>
</g>
</svg>
